<?xml version="1.0" standalone="no"?>
<!DOCTYPE svg PUBLIC "-//W3C//DTD SVG 20010904//EN"
 "http://www.w3.org/TR/2001/REC-SVG-20010904/DTD/svg10.dtd">
<svg version="1.0" xmlns="http://www.w3.org/2000/svg"
 width="300.000000pt" height="300.000000pt" viewBox="0 0 300.000000 300.000000"
 preserveAspectRatio="xMidYMid meet">
<metadata>
Created by potrace 1.10, written by Peter Selinger 2001-2011
</metadata>
<g transform="translate(0.000000,300.000000) scale(0.100000,-0.100000)"
fill="#000000" stroke="none">
<path d="M1623 2576 c-94 -31 -131 -55 -198 -128 -64 -72 -134 -207 -166 -323
-18 -67 -21 -96 -16 -182 6 -99 19 -149 37 -138 5 3 11 1 15 -5 5 -9 -7 -14
-27 -11 -4 0 -4 -7 -1 -16 5 -12 3 -14 -8 -9 -8 4 -6 1 3 -7 10 -8 17 -26 16
-43 -1 -16 2 -41 6 -56 6 -20 5 -28 -5 -28 -7 0 -10 3 -6 6 3 4 0 19 -8 35 -8
15 -15 39 -15 53 0 30 -17 43 -23 19 -4 -14 -5 -13 -6 5 0 12 3 22 9 22 15 0
29 35 20 49 -12 21 -40 -40 -40 -89 0 -22 9 -58 19 -79 19 -37 88 -111 103
-111 4 0 8 -39 9 -87 0 -49 7 -119 15 -158 l14 -70 -8 65 c-4 36 -6 132 -5
215 1 89 -2 144 -7 135 -5 -8 -6 -18 -4 -22 3 -4 0 -8 -6 -8 -7 0 -10 7 -7 15
4 8 2 17 -3 20 -12 8 -13 55 -1 55 4 0 7 -11 6 -25 -2 -14 1 -25 5 -25 5 0 7
19 4 42 -8 63 5 40 21 -37 18 -86 54 -142 160 -246 151 -149 215 -156 344 -42
l45 39 65 -49 c36 -27 80 -61 96 -75 29 -24 29 -25 5 -17 -46 15 -141 6 -188
-16 -65 -32 -143 -115 -190 -203 -43 -79 -97 -157 -181 -260 -45 -55 -48 -63
-44 -105 11 -116 22 -144 76 -202 28 -31 61 -60 71 -66 18 -10 18 -15 6 -94
-7 -46 -19 -112 -26 -147 -8 -35 -13 -78 -13 -95 2 -37 16 28 49 223 12 68 37
173 56 233 36 115 40 142 24 152 -6 4 -10 -8 -10 -30 0 -42 -60 -235 -73 -235
-5 0 -35 28 -67 61 -49 52 -59 70 -69 117 -19 96 -15 122 29 177 80 101 143
192 188 274 78 139 174 210 285 211 101 0 150 -36 216 -159 86 -163 63 -440
-65 -786 -45 -122 -65 -209 -63 -280 1 -25 6 -7 14 51 8 50 25 123 39 162 14
40 37 104 51 143 14 39 40 130 57 202 37 156 43 320 15 421 -32 117 -112 222
-249 327 -42 32 -79 63 -83 69 -3 5 9 29 27 53 135 182 140 191 159 267 12 52
15 71 18 130 1 17 4 21 12 13 8 -8 8 -17 -1 -33 -6 -12 -9 -24 -6 -27 8 -8 36
64 58 151 29 112 23 300 -11 366 -44 84 -134 165 -244 220 -94 47 -104 50
-176 50 -51 -1 -99 -8 -148 -24z m241 6 c3 -5 -8 -6 -25 -4 -16 2 -29 6 -29 8
0 8 49 4 54 -4z m-101 -9 c-24 -2 -43 -9 -43 -14 0 -6 -9 -7 -21 -4 -15 5 -19
4 -15 -4 4 -6 3 -11 -3 -11 -5 0 -13 5 -16 10 -3 6 -1 10 6 10 7 0 10 2 8 5
-7 7 -90 -24 -120 -46 -15 -10 -33 -19 -40 -19 -7 0 -9 -3 -6 -7 4 -3 2 -12
-4 -20 -9 -10 -8 -13 1 -13 9 0 8 -5 -3 -18 -10 -10 -14 -22 -10 -25 3 -4 2
-7 -4 -7 -20 0 -23 14 -6 32 9 10 13 18 8 18 -4 0 -2 7 5 15 7 8 8 15 2 15 -5
0 -15 -7 -22 -15 -10 -12 -10 -15 1 -15 7 0 0 -13 -16 -30 -16 -16 -25 -30
-21 -30 5 0 3 -7 -4 -15 -9 -11 -16 -13 -23 -6 -7 7 -6 15 1 24 7 8 8 17 4 21
-4 4 0 6 8 4 8 -1 14 2 15 7 5 67 156 141 288 141 39 1 53 -1 30 -3z m118 -17
c9 0 16 -6 16 -13 0 -14 -40 -13 -53 0 -11 11 -54 8 -54 -3 0 -5 -3 -9 -7 -8
-8 2 -80 -15 -138 -32 -29 -9 -29 -9 -2 -4 19 3 26 1 22 -6 -3 -5 -15 -10 -26
-10 -10 0 -19 -5 -19 -11 0 -16 -131 -135 -144 -131 -7 2 -7 -1 1 -9 9 -9 17
-8 37 5 38 24 56 19 21 -7 -16 -12 -32 -21 -35 -20 -8 3 -50 -39 -45 -47 2 -3
-9 -21 -26 -39 -16 -18 -26 -38 -23 -44 5 -9 3 -9 -6 0 -11 10 -10 17 4 37 9
14 16 28 16 31 -1 4 9 14 22 25 30 24 16 37 -18 16 -14 -10 -23 -20 -20 -23 3
-3 -8 -32 -25 -64 -16 -32 -29 -61 -29 -64 0 -3 -3 -4 -7 -2 -5 1 -7 9 -5 17
2 8 5 31 7 50 3 19 13 42 23 50 10 9 17 21 15 27 -2 6 16 34 41 62 43 49 60
81 34 65 -7 -5 -8 -3 -4 5 6 9 13 8 26 -4 18 -17 18 -18 -11 -42 -16 -14 -26
-30 -22 -35 3 -6 1 -8 -5 -4 -6 3 -13 3 -16 -2 -3 -5 8 -8 25 -8 18 0 26 3 20
9 -13 13 -2 39 13 30 6 -3 8 -2 3 2 -4 5 13 22 39 38 25 15 44 31 41 34 -3 3
-21 -5 -39 -18 -21 -15 -28 -17 -19 -6 10 13 10 17 1 17 -10 0 -10 3 1 16 7 8
20 14 28 11 9 -2 30 2 46 9 18 8 23 13 13 14 -10 0 -18 5 -18 11 0 6 7 8 16 5
8 -3 13 -2 10 3 -3 5 8 14 24 21 17 7 30 17 30 22 0 5 -6 6 -12 1 -7 -4 -18
-8 -24 -9 -6 -1 -23 -10 -38 -19 -21 -14 -24 -20 -15 -31 8 -10 8 -14 0 -14
-6 0 -11 5 -11 10 0 7 -8 7 -22 -1 -23 -12 -23 -12 1 14 13 14 43 35 67 47 43
19 45 20 71 3 15 -10 24 -13 20 -7 -11 19 96 45 143 35 14 -2 32 -5 41 -5z
m56 -23 c0 -7 -5 -13 -10 -13 -6 0 -2 -9 8 -20 25 -28 12 -37 -16 -11 -14 13
-35 20 -53 20 l-31 -2 35 -7 c23 -5 -4 -7 -78 -8 -156 0 -142 9 27 17 11 1 10
5 -5 17 -18 15 -18 15 3 5 35 -17 110 -11 98 8 -2 4 2 8 9 8 7 0 13 -6 13 -14z
m88 -34 c17 -10 50 -39 75 -65 l45 -48 -57 47 c-32 27 -59 43 -63 37 -3 -5 -2
-10 3 -10 5 0 9 -7 9 -15 0 -17 -13 -20 -22 -5 -4 6 -10 8 -15 5 -4 -3 -14 3
-21 12 -8 10 -9 14 -2 10 6 -4 14 -3 18 3 3 5 -3 10 -13 10 -11 0 -25 7 -32
15 -19 23 12 19 43 -5 15 -12 28 -16 32 -11 3 6 -14 19 -37 30 -24 12 -32 18
-18 15 14 -4 39 -14 55 -25z m-339 -34 c-19 -14 -17 -15 20 -15 l39 -1 -34
-14 c-39 -18 -44 -18 -36 -6 3 6 -3 9 -14 8 -11 0 -18 -4 -15 -8 2 -4 -10 -18
-28 -30 -33 -23 -50 -41 -44 -47 2 -2 20 8 40 22 20 13 58 33 84 42 26 10 50
23 54 28 5 8 8 7 8 -1 0 -6 -18 -22 -40 -34 -21 -12 -37 -26 -35 -30 8 -13
-22 -18 -35 -6 -10 9 -11 9 -6 0 7 -12 -5 -18 -27 -14 -5 1 -6 -3 -2 -9 6 -9
-8 -14 -28 -11 -5 1 -6 -3 -2 -9 3 -5 -1 -10 -10 -10 -9 0 -13 -4 -10 -10 3
-5 0 -7 -8 -4 -8 3 -27 -6 -43 -20 -16 -14 -23 -26 -16 -26 8 0 3 -13 -13 -35
-15 -19 -32 -33 -38 -32 -7 1 -11 -4 -9 -11 1 -7 -4 -20 -12 -28 -13 -12 -17
-12 -30 2 -18 18 -21 11 -5 -17 8 -16 4 -29 -27 -70 -36 -50 -61 -62 -30 -15
10 15 12 27 6 31 -6 3 -13 -2 -16 -12 -3 -10 -10 -26 -15 -35 -13 -25 -12 -28
15 -28 28 0 42 -16 37 -45 -1 -11 15 16 38 60 22 44 56 98 76 120 43 48 42 41
-9 -48 -21 -37 -39 -79 -40 -92 0 -14 -4 -25 -7 -25 -4 0 -15 -34 -24 -76 -13
-60 -14 -79 -4 -88 9 -8 10 -8 5 2 -9 16 17 108 55 190 65 144 205 311 296
352 30 14 74 23 118 26 l70 3 -62 -9 c-88 -12 -142 -40 -204 -102 -65 -67
-148 -214 -189 -335 -35 -106 -71 -276 -69 -330 1 -24 3 -29 6 -13 27 182 57
307 98 408 15 38 35 56 35 33 0 -6 13 -6 34 0 36 10 94 -4 169 -43 39 -20 78
-21 84 -3 3 13 -150 95 -177 95 -12 0 -38 -9 -60 -20 -51 -26 -53 -25 -46 8
17 68 150 228 220 264 24 12 68 22 115 25 42 3 82 10 89 16 7 5 13 8 15 6 1
-2 7 -13 13 -24 6 -11 28 -32 50 -47 66 -44 95 -167 72 -293 l-14 -70 -48 1
c-42 0 -46 -1 -30 -13 21 -15 11 -17 -17 -3 -12 7 -19 7 -19 1 0 -15 35 -31
69 -31 31 0 36 -6 25 -33 -4 -12 -12 -13 -39 -4 -27 8 -40 6 -71 -10 -37 -19
-56 -43 -34 -43 6 0 8 5 5 10 -3 6 -2 10 3 10 5 0 12 -8 15 -18 10 -42 138
-29 131 13 -6 34 7 75 23 75 12 0 14 -6 8 -27 -4 -16 -13 -62 -20 -104 -17
-97 -30 -128 -91 -213 -59 -83 -200 -228 -245 -251 -34 -18 -95 -14 -136 8
-12 7 -64 53 -115 102 -120 116 -146 166 -157 299 -4 53 -11 99 -15 103 -3 3
-6 -3 -6 -15 0 -12 -4 -22 -10 -22 -5 0 -10 11 -10 25 0 14 -4 25 -9 25 -13 0
-6 -59 9 -73 7 -7 10 -7 7 -1 -3 6 0 11 7 11 11 0 12 -4 3 -18 -6 -10 -14 -16
-19 -13 -7 4 -14 -17 -19 -56 -3 -22 21 -101 29 -96 4 2 7 -7 7 -20 0 -13 -4
-22 -10 -20 -5 2 -9 9 -7 16 2 7 -3 10 -11 7 -19 -7 -61 38 -81 87 -19 45 -20
56 -6 56 6 0 10 -7 10 -15 0 -27 32 -94 43 -92 7 1 11 -4 10 -10 -2 -7 3 -13
11 -13 12 0 13 6 5 33 -6 17 -12 52 -13 77 -2 25 -7 54 -11 65 -6 19 -6 19 8
2 14 -16 15 -16 12 10 -1 15 -11 50 -23 76 -27 59 -27 83 -4 122 19 30 19 60
1 49 -5 -3 -1 17 10 45 10 28 16 53 12 55 -6 4 -22 -45 -45 -139 -3 -11 -3 8
-1 41 5 73 23 117 42 109 11 -3 13 1 8 16 -5 16 -4 19 6 14 9 -6 11 -3 6 8 -3
10 -2 17 3 17 6 0 5 10 -1 24 -9 19 -6 32 15 72 14 27 34 62 44 78 19 28 20
28 31 8 9 -17 6 -25 -23 -50 -23 -20 -31 -33 -24 -40 7 -7 3 -14 -11 -22 -12
-6 -19 -15 -16 -21 4 -5 1 -9 -5 -9 -7 0 -8 -6 0 -19 7 -14 7 -27 -1 -44 -9
-19 -7 -31 6 -57 14 -28 19 -31 26 -18 5 9 10 29 11 45 2 38 7 46 23 33 10 -9
17 -5 27 17 8 15 20 27 26 26 12 -3 13 0 16 35 1 22 24 52 36 49 4 -1 22 8 39
21 33 24 33 47 -1 39 -16 -4 -17 -3 -7 9 6 7 15 12 19 9 4 -2 22 10 40 28 29
29 98 76 110 76 3 0 -4 -6 -14 -14z m214 5 c0 -5 -12 -10 -27 -11 -16 0 -50
-2 -78 -3 -62 -3 -92 3 -73 15 19 12 178 11 178 -1z m63 -18 c4 -6 5 -17 1
-23 -5 -8 -10 -6 -16 5 -11 20 -44 21 -52 1 -10 -27 39 -32 94 -10 10 3 32 -9
58 -31 50 -42 64 -42 24 1 -24 26 -38 55 -26 55 2 0 23 -18 47 -39 23 -21 47
-39 52 -38 10 0 54 -70 55 -85 0 -5 -4 -8 -10 -8 -5 0 -9 3 -8 8 4 15 -14 52
-23 47 -5 -4 -5 -13 1 -24 5 -10 6 -21 3 -25 -3 -3 1 -14 11 -24 9 -11 15 -25
13 -33 -2 -8 -2 -11 0 -6 11 18 18 4 21 -38 1 -25 -1 -45 -6 -45 -5 0 -12 -49
-16 -108 -7 -117 -18 -173 -29 -155 -4 6 -2 24 4 40 6 15 12 83 12 150 2 105
4 119 15 100 11 -19 12 -19 6 -2 -4 11 -14 39 -22 63 -8 23 -17 40 -20 37 -3
-2 -11 0 -19 6 -17 15 -16 9 2 -28 24 -49 35 -127 28 -213 -5 -67 -9 -80 -23
-80 -16 0 -16 5 -4 58 18 77 17 138 -3 203 -10 30 -17 59 -18 66 -1 18 -37 53
-48 46 -6 -3 -7 -1 -3 6 4 6 12 9 17 6 5 -4 9 -2 9 4 0 11 -71 57 -82 53 -5
-1 -8 5 -8 13 0 11 -5 10 -21 -6 -15 -15 -24 -18 -32 -10 -6 6 -21 11 -34 11
-13 0 -23 5 -23 10 0 6 -5 10 -11 10 -5 0 -8 -3 -6 -7 3 -5 -17 -7 -44 -7 -27
1 -47 -2 -44 -6 5 -8 -88 -55 -130 -66 -14 -3 -28 -10 -31 -15 -3 -5 -2 -8 3
-7 4 2 8 -1 9 -7 1 -15 -88 -115 -97 -109 -4 2 -11 -1 -15 -7 -4 -8 -3 -9 4
-5 7 4 12 3 12 -3 0 -5 -4 -13 -10 -16 -5 -3 -28 -39 -50 -78 -22 -40 -40 -67
-40 -62 0 6 18 41 40 79 22 38 38 71 36 74 -8 8 14 43 23 37 11 -6 63 60 54
69 -14 13 -217 -229 -206 -247 3 -6 1 -7 -5 -3 -7 4 -12 1 -12 -9 0 -9 -4 -13
-10 -10 -10 6 49 109 78 135 25 22 96 123 80 115 -7 -5 -6 0 3 9 9 10 22 18
30 19 8 2 29 12 46 25 29 21 72 40 103 47 31 7 73 26 67 31 -3 3 -14 1 -25 -5
-42 -22 -45 -10 -5 15 31 18 47 22 60 16 11 -6 26 -6 38 -1 18 9 18 9 -2 5
-13 -2 -26 1 -30 7 -4 7 10 8 43 4 27 -3 43 -3 36 0 -10 4 -7 9 10 17 30 15
61 14 71 -2z m-23 -28 c0 -2 -9 -4 -21 -4 -11 0 -18 4 -14 10 5 8 35 3 35 -6z
m-270 -8 c0 -2 -7 -7 -16 -10 -8 -3 -12 -2 -9 4 6 10 25 14 25 6z m370 -51 c7
-8 8 -15 2 -15 -5 0 -15 7 -22 15 -7 8 -8 15 -2 15 5 0 15 -7 22 -15z m167
-277 c-3 -8 -6 -5 -6 6 -1 11 2 17 5 13 3 -3 4 -12 1 -19z m-528 -30 c13 -22
13 -22 -4 -8 -10 8 -27 14 -38 12 -12 -2 -17 1 -13 7 12 18 40 12 55 -11z m64
-32 c-4 -6 -8 -6 -11 2 -2 7 -10 12 -17 12 -7 0 -16 7 -19 15 -5 14 -1 13 24
-1 16 -10 26 -22 23 -28z m464 7 c-3 -10 -5 -4 -5 12 0 17 2 24 5 18 2 -7 2
-21 0 -30z m-429 -28 c-3 -3 -9 2 -12 12 -6 14 -5 15 5 6 7 -7 10 -15 7 -18z
m372 -75 c0 -5 -7 -10 -15 -10 -8 0 -15 5 -15 10 0 6 7 10 15 10 8 0 15 -4 15
-10z m-65 -81 c14 -14 -9 -11 -46 6 l-34 16 35 -7 c19 -3 39 -10 45 -15z m-40
-9 c34 -13 23 -30 -18 -29 -18 1 -24 3 -14 6 9 2 17 9 17 15 0 5 -7 8 -15 4
-8 -3 -15 -1 -15 4 0 13 12 13 45 0z"/>
<path d="M1580 2440 c-9 -6 -10 -10 -3 -10 6 0 15 5 18 10 8 12 4 12 -15 0z"/>
<path d="M1403 2303 c4 -3 1 -13 -6 -22 -11 -14 -10 -14 5 -2 16 12 16 31 1
31 -4 0 -3 -3 0 -7z"/>
<path d="M1376 2244 c-9 -8 -16 -20 -16 -26 0 -6 1 -9 3 -7 1 2 11 14 21 27
22 25 16 30 -8 6z"/>
<path d="M1379 2333 l-24 -28 28 24 c25 23 32 31 24 31 -2 0 -14 -12 -28 -27z"/>
<path d="M1483 2278 c-11 -19 -13 -39 -1 -32 5 3 7 9 4 12 -3 3 -1 11 5 19 6
7 9 13 6 13 -3 0 -9 -6 -14 -12z"/>
<path d="M1306 2076 c-23 -48 -19 -59 4 -12 11 22 18 41 16 43 -2 2 -11 -12
-20 -31z"/>
<path d="M1328 1980 c5 -14 6 -36 2 -50 l-6 -25 -15 23 c-15 24 -32 30 -23 9
3 -8 17 -23 33 -34 l27 -21 -1 49 c-1 27 -7 55 -14 62 -10 10 -10 7 -3 -13z"/>
<path d="M1611 1977 c-6 -8 -7 -18 -3 -23 4 -4 -1 -2 -10 5 -19 14 -21 12 -12
-12 4 -11 15 -14 40 -10 30 5 34 3 27 -12 -5 -15 -3 -17 11 -12 10 4 15 3 11
-3 -3 -6 1 -10 9 -10 8 0 18 5 22 12 5 7 2 8 -7 3 -11 -6 -12 -5 -1 6 10 11
16 10 34 -9 l22 -22 -40 0 c-27 0 -51 7 -68 21 -15 12 -29 19 -32 16 -3 -3 9
-15 26 -27 33 -24 90 -36 117 -26 14 6 14 8 -1 24 -19 22 -21 36 -3 26 6 -4 5
0 -3 9 -26 27 -73 47 -86 36 -13 -11 -46 -1 -38 12 8 14 -2 11 -15 -4z m99
-27 c8 -5 11 -10 5 -10 -5 0 -17 5 -25 10 -8 5 -10 10 -5 10 6 0 17 -5 25 -10z"/>
<path d="M1883 1855 c-8 -24 2 -124 15 -137 8 -8 9 -1 1 27 -6 22 -9 59 -6 82
5 44 1 55 -10 28z"/>
<path d="M1710 1716 c-15 -19 -9 -58 10 -64 12 -4 13 -2 3 9 -17 18 -16 34 3
53 8 9 11 16 6 16 -5 0 -15 -7 -22 -14z"/>
<path d="M1591 1667 c-34 -17 -49 -43 -33 -59 9 -9 12 -6 12 15 0 20 6 28 25
33 14 3 25 10 25 15 0 11 0 11 -29 -4z"/>
<path d="M1770 1645 c33 -19 50 -18 26 0 -11 8 -27 15 -35 15 -10 -1 -7 -6 9
-15z"/>
<path d="M1874 1615 c-18 -13 -18 -14 4 -8 12 3 25 9 28 14 8 14 -10 11 -32
-6z"/>
<path d="M1606 1598 c26 -45 91 -110 127 -127 60 -29 91 -27 129 10 24 23 26
27 8 15 -58 -38 -67 -40 -113 -22 -51 19 -149 112 -118 112 11 0 17 -4 15 -8
-8 -13 106 -61 157 -66 27 -2 56 1 70 9 l24 12 -30 13 c-16 7 -42 13 -57 14
-15 0 -69 11 -120 25 -109 29 -101 28 -92 13z m120 -32 c27 -8 70 -17 97 -21
29 -4 45 -10 41 -17 -10 -16 -97 -1 -157 27 -60 27 -53 31 19 11z"/>
<path d="M1924 1535 c-1 -14 2 -22 7 -19 11 6 12 44 2 44 -5 0 -9 -11 -9 -25z"/>
<path d="M2080 2403 c0 -6 7 -13 15 -17 15 -5 16 -31 1 -54 -4 -7 -4 -12 1
-11 17 3 33 -1 31 -8 0 -5 2 -16 7 -26 6 -14 10 -15 16 -6 4 7 -2 25 -17 45
-15 19 -20 34 -14 36 6 2 0 14 -14 27 -14 14 -26 20 -26 14z"/>
<path d="M2135 2360 c-4 -6 -3 -16 3 -22 6 -6 12 -6 17 2 4 6 3 16 -3 22 -6 6
-12 6 -17 -2z"/>
<path d="M1595 2300 c-10 -16 17 -23 31 -8 12 12 11 14 -6 15 -11 1 -22 -2
-25 -7z"/>
<path d="M1261 1724 c0 -11 3 -14 6 -6 3 7 2 16 -1 19 -3 4 -6 -2 -5 -13z"/>
<path d="M1144 1500 c-163 -18 -280 -122 -457 -408 -42 -67 -106 -150 -173
-222 -58 -63 -122 -134 -142 -158 -20 -24 -55 -57 -80 -74 -24 -16 -41 -32
-39 -34 7 -8 93 54 110 78 8 13 70 82 136 153 90 96 144 164 204 260 86 136
207 290 258 326 35 25 153 68 186 69 20 0 16 -6 -23 -42 -52 -48 -66 -72 -101
-172 -20 -56 -26 -98 -30 -196 -3 -69 -9 -132 -14 -140 -7 -12 -8 -11 -9 5 0
12 -23 43 -52 70 -52 49 -52 49 -11 5 46 -49 68 -95 57 -119 -3 -9 -17 -54
-30 -101 -12 -47 -32 -116 -43 -155 -38 -133 -21 -249 49 -336 30 -38 30 -38
32 -176 l2 -138 6 129 c5 139 7 142 50 56 55 -111 123 -159 245 -174 44 -6 42
-4 -22 13 -119 33 -158 62 -205 155 -11 22 -44 73 -74 111 -60 79 -79 119 -89
187 -8 50 8 164 29 213 l14 30 10 -26 c66 -165 316 -187 473 -41 33 30 57 57
55 60 -3 2 -32 -20 -65 -51 -66 -61 -116 -82 -219 -91 -49 -4 -61 -3 -56 7 5
6 27 40 51 75 24 35 43 73 42 85 0 18 -3 17 -12 -8 -19 -48 -91 -154 -105
-154 -18 -1 -83 34 -109 58 -13 12 -30 36 -39 53 -14 27 -15 37 -4 67 7 20 26
53 42 74 26 33 29 42 22 75 -4 20 -7 91 -8 157 0 104 4 132 28 212 32 101 79
174 135 207 19 11 64 23 100 26 l66 7 -65 0 c-36 0 -92 -3 -126 -7z m-134
-616 c0 -12 -13 -38 -30 -59 -16 -21 -30 -42 -30 -48 0 -6 -2 -8 -5 -6 -5 6
29 131 40 150 10 15 25 -8 25 -37z"/>
<path d="M1201 1410 c-1 -41 28 -108 54 -130 14 -11 12 -6 -5 17 -13 18 -29
59 -36 90 -10 48 -12 52 -13 23z"/>
<path d="M1844 1270 c-27 -27 -151 -90 -177 -90 -12 0 -29 -5 -37 -11 -11 -7
-4 -8 25 -3 61 10 230 103 214 118 -3 3 -14 -3 -25 -14z"/>
<path d="M824 702 c-45 -37 -132 -111 -195 -166 -63 -54 -164 -136 -225 -182
-62 -47 -118 -92 -125 -101 -13 -16 -12 -16 6 -3 106 77 243 184 355 280 74
64 168 142 208 174 39 32 72 60 72 62 0 12 -23 -4 -96 -64z"/>
</g>
</svg>
