<?xml version="1.0" standalone="no"?>
<!DOCTYPE svg PUBLIC "-//W3C//DTD SVG 20010904//EN"
 "http://www.w3.org/TR/2001/REC-SVG-20010904/DTD/svg10.dtd">
<svg version="1.0" xmlns="http://www.w3.org/2000/svg"
 width="2048.000000pt" height="2048.000000pt" viewBox="0 0 2048.000000 2048.000000"
 preserveAspectRatio="xMidYMid meet">

<g transform="translate(0.000000,2048.000000) scale(0.100000,-0.100000)"
fill="#000000" stroke="none">
<path d="M6870 17925 c-92 -49 -249 -184 -330 -284 -97 -121 -159 -276 -196
-491 -29 -168 -27 -237 12 -495 26 -167 67 -319 140 -517 24 -65 44 -123 44
-130 0 -7 -28 -29 -63 -49 -477 -278 -952 -608 -1292 -899 -71 -61 -179 -153
-240 -204 -154 -131 -333 -302 -525 -501 -91 -93 -167 -171 -170 -172 -3 -2
-6 97 -8 220 -5 339 -30 496 -105 647 -72 145 -230 291 -404 372 -60 29 -73
31 -167 29 -93 -1 -110 -5 -182 -36 -43 -19 -92 -45 -109 -58 -17 -14 -54 -72
-88 -138 -54 -105 -60 -125 -82 -254 -14 -77 -25 -164 -25 -193 0 -60 30 -215
67 -342 71 -246 279 -554 493 -730 112 -93 106 -84 81 -117 -104 -135 -152
-203 -312 -451 -215 -330 -260 -405 -342 -567 -33 -66 -75 -145 -93 -175 -81
-138 -236 -519 -360 -885 -172 -508 -214 -697 -259 -1180 -26 -271 -19 -1206
9 -1285 3 -8 10 -53 16 -100 21 -177 107 -521 180 -720 21 -58 41 -121 45
-140 24 -120 229 -527 366 -727 16 -22 53 -85 84 -138 30 -53 76 -124 103
-158 27 -34 69 -96 94 -137 49 -82 253 -362 328 -450 26 -30 66 -82 90 -115
24 -33 74 -96 110 -140 37 -44 90 -113 119 -153 28 -40 93 -121 144 -181 50
-59 133 -157 182 -216 50 -60 113 -136 141 -169 64 -76 477 -482 547 -537 29
-23 84 -72 123 -109 l71 -67 -76 -6 c-252 -21 -330 -30 -454 -53 -325 -60
-442 -143 -506 -360 -49 -166 -4 -305 146 -450 135 -131 282 -184 513 -184
176 0 351 45 532 136 122 61 228 142 370 282 l117 115 88 -55 c107 -68 118
-73 179 -94 27 -9 83 -34 125 -55 42 -21 130 -58 195 -82 65 -25 151 -59 189
-76 191 -83 608 -194 1015 -271 91 -17 179 -35 195 -40 17 -6 116 -21 220 -35
105 -13 206 -29 225 -35 19 -6 134 -17 255 -26 121 -8 265 -21 319 -29 55 -8
172 -15 260 -16 89 0 197 -5 241 -10 44 -6 96 -10 115 -10 l36 0 0 -72 c0
-121 61 -209 184 -266 47 -22 72 -26 171 -29 110 -4 119 -3 175 24 87 40 201
162 257 273 23 47 42 87 42 88 0 1 66 4 145 7 188 8 297 20 560 63 289 47 630
124 916 206 l80 23 -60 -60 c-75 -75 -158 -185 -224 -293 -54 -90 -72 -158
-72 -274 1 -69 6 -82 60 -149 38 -46 121 -90 237 -124 58 -18 64 -18 131 -1
178 43 371 223 458 425 47 108 60 198 69 467 l8 213 51 18 c28 11 96 34 151
52 150 49 453 159 487 176 16 8 70 30 121 48 153 56 290 114 463 197 55 27
114 51 131 55 29 6 31 4 47 -42 23 -68 170 -248 280 -341 89 -74 258 -193 326
-228 50 -26 214 -71 286 -80 114 -13 288 33 395 103 86 57 141 137 165 238 31
134 7 216 -105 357 -69 87 -149 147 -276 209 -96 46 -214 71 -407 84 -49 3
-88 10 -88 15 0 5 15 16 33 25 49 26 207 140 252 183 22 21 67 57 100 81 33
24 84 64 113 89 87 74 347 339 425 431 39 47 92 108 117 135 57 60 166 221
304 444 148 239 223 379 277 516 26 66 69 172 96 235 28 63 80 192 117 285 96
244 88 231 179 270 140 60 228 116 313 200 45 44 92 100 104 125 34 67 60 149
60 190 0 57 -60 168 -124 228 -46 44 -156 107 -218 126 -22 7 -23 49 -3 131
18 71 51 385 65 605 5 85 16 259 25 385 17 263 19 620 5 875 -20 361 -30 560
-36 733 l-5 178 58 -30 c32 -16 82 -39 110 -50 29 -11 83 -36 120 -54 122 -61
306 -134 442 -177 177 -55 433 -93 524 -79 212 34 313 91 396 223 40 65 48
120 25 188 -24 73 -37 91 -118 159 -91 77 -275 168 -431 215 -162 48 -391 81
-693 101 -87 6 -91 7 -70 21 13 9 50 38 82 66 62 54 101 84 282 221 132 100
255 213 311 287 23 29 56 87 74 128 30 69 32 84 33 186 1 106 0 112 -29 160
-26 42 -38 52 -85 67 -100 34 -309 -2 -458 -77 -136 -69 -238 -145 -338 -253
-151 -162 -298 -369 -352 -493 l-15 -35 -13 45 c-8 25 -29 99 -48 165 -135
473 -448 1127 -715 1495 -26 36 -58 83 -71 105 -42 72 -162 238 -232 320 -136
161 -746 761 -918 902 -41 34 -102 92 -134 129 -33 36 -91 90 -130 119 -39 29
-111 88 -161 132 -107 94 -237 201 -368 302 -154 118 -161 108 78 109 404 3
635 60 830 205 83 62 169 172 190 241 8 27 15 82 15 122 0 156 -75 240 -285
319 -54 20 -85 25 -159 25 -187 0 -442 -71 -659 -182 -45 -24 -85 -44 -89 -46
-3 -2 5 32 19 75 49 154 83 347 83 467 0 176 -37 287 -130 388 -85 94 -203
148 -320 148 -81 0 -162 -43 -238 -125 -72 -79 -113 -153 -147 -270 -24 -80
-28 -111 -32 -290 -6 -204 7 -351 41 -500 8 -33 13 -61 11 -64 -2 -2 -18 7
-35 19 -18 13 -109 62 -203 110 -95 48 -228 117 -297 153 -188 99 -461 190
-770 256 -174 38 -353 55 -730 71 -247 10 -359 23 -625 75 -154 29 -250 37
-375 32 -355 -17 -964 -142 -1560 -322 -63 -19 -164 -49 -225 -66 -60 -17
-132 -40 -160 -51 -27 -11 -160 -60 -295 -109 -245 -90 -325 -123 -540 -226
-211 -101 -225 -107 -209 -85 55 77 251 366 273 403 61 106 137 296 168 423
31 122 33 142 33 301 0 201 -13 259 -81 377 -34 58 -63 91 -115 133 -39 31
-84 61 -102 66 -18 5 -81 12 -142 15 l-110 5 -85 -46z m3885 -1156 c134 -18
383 -69 489 -101 177 -52 807 -385 1056 -556 69 -48 177 -122 240 -165 115
-77 156 -108 325 -242 50 -39 110 -84 134 -99 167 -107 415 -326 819 -721 199
-195 347 -358 437 -480 16 -22 53 -68 82 -103 101 -119 304 -441 422 -667 136
-261 191 -377 278 -585 36 -85 82 -189 103 -230 20 -41 41 -86 45 -100 4 -14
41 -97 82 -185 41 -88 84 -185 95 -215 11 -30 24 -59 28 -65 5 -5 31 -67 59
-138 28 -70 55 -135 61 -145 43 -74 205 -675 232 -860 l14 -93 -49 50 c-60 62
-101 75 -213 69 -97 -5 -133 -24 -240 -122 -90 -82 -264 -298 -331 -410 l-51
-86 -5 38 c-4 20 -9 147 -12 282 -6 230 -11 300 -50 655 -23 210 -92 547 -160
785 -13 47 -29 105 -35 130 -21 82 -78 264 -100 320 -20 50 -38 104 -129 395
-77 243 -152 426 -264 639 -32 61 -74 145 -93 186 -54 114 -201 343 -323 505
-94 123 -365 429 -491 554 -88 88 -370 336 -420 371 -51 35 -204 162 -290 242
-75 69 -349 260 -640 447 -269 173 -507 288 -815 395 -338 117 -539 166 -915
222 -102 15 -189 31 -193 35 -9 7 78 21 273 43 144 17 439 20 545 5z m1132
-134 c108 -27 480 -164 600 -220 181 -86 583 -339 783 -495 97 -74 354 -293
524 -445 181 -161 310 -271 577 -490 80 -66 195 -163 255 -214 138 -120 589
-565 659 -651 29 -36 108 -132 175 -215 67 -82 127 -154 134 -160 7 -5 21 -26
31 -45 10 -19 44 -75 75 -125 59 -91 276 -504 319 -605 13 -30 34 -73 47 -95
75 -130 215 -523 289 -810 90 -353 121 -530 169 -955 30 -276 45 -1542 22
-1855 -8 -104 -18 -239 -21 -300 -11 -190 -66 -502 -93 -526 -4 -3 -59 -24
-122 -44 -63 -21 -158 -58 -210 -82 -91 -42 -121 -60 -217 -125 -24 -16 -43
-27 -43 -24 0 4 17 57 39 119 21 61 52 168 69 237 63 254 101 417 116 500 34
186 57 595 59 1050 2 383 -6 488 -58 763 -153 796 -362 1416 -716 2120 -44 87
-91 187 -104 223 -14 37 -33 82 -44 103 -10 20 -51 104 -91 186 -39 83 -80
168 -92 190 -11 22 -51 99 -88 170 -37 72 -94 175 -126 230 -31 55 -74 129
-94 165 -84 150 -223 337 -357 481 -135 145 -406 406 -533 513 -58 49 -136
119 -175 156 -105 101 -261 232 -424 358 -359 276 -402 307 -796 576 -44 30
-201 120 -350 201 -259 140 -315 174 -270 162 11 -3 48 -13 82 -22z m-1807
-160 c47 -9 119 -23 160 -31 41 -8 111 -21 155 -29 134 -23 532 -162 825 -289
486 -211 830 -425 1245 -777 127 -107 262 -218 375 -309 58 -46 191 -170 295
-274 224 -224 255 -259 312 -340 59 -84 223 -330 261 -391 204 -327 278 -461
337 -608 20 -51 54 -135 75 -187 62 -156 201 -590 219 -685 5 -27 24 -93 41
-145 43 -131 157 -592 170 -691 6 -44 13 -86 15 -92 3 -7 19 -106 36 -222 30
-197 32 -231 36 -555 3 -190 2 -343 -1 -340 -3 3 -45 84 -94 180 -181 357
-261 468 -409 566 -55 37 -69 42 -144 48 -128 10 -222 -6 -288 -51 -79 -55
-158 -157 -172 -224 -27 -126 27 -417 106 -570 88 -169 255 -360 458 -522 176
-140 204 -159 346 -233 l113 -59 -6 -130 c-3 -71 -12 -166 -21 -210 -8 -44
-22 -130 -30 -190 -21 -152 -82 -439 -135 -634 -11 -41 -20 -86 -20 -100 -1
-14 -8 -44 -16 -66 -8 -22 -26 -79 -39 -126 -27 -96 -108 -322 -156 -432 -147
-338 -215 -479 -304 -632 -29 -49 -102 -184 -162 -300 -61 -115 -135 -247
-166 -292 l-55 -82 -26 39 c-31 47 -115 116 -173 142 -24 10 -79 23 -124 28
-73 8 -86 7 -143 -14 -84 -32 -131 -62 -212 -138 -176 -165 -267 -383 -354
-853 -11 -60 -26 -152 -33 -204 l-12 -95 -140 -27 c-448 -87 -847 -151 -861
-137 -3 4 -13 47 -21 95 -10 65 -27 115 -63 190 -65 135 -112 203 -212 305
-103 105 -210 164 -331 181 -91 13 -128 0 -205 -72 -48 -44 -50 -49 -57 -112
-8 -78 -3 -107 36 -214 36 -96 98 -183 227 -317 l93 -96 -88 -7 c-183 -16
-935 15 -1368 55 -152 14 -346 39 -435 55 -41 8 -97 17 -125 20 -161 20 -592
107 -875 177 -47 11 -134 31 -195 44 -312 68 -329 72 -715 201 -269 90 -299
104 -296 135 2 13 22 87 44 166 48 165 59 227 68 373 10 161 -21 373 -80 546
-92 271 -262 389 -488 339 -70 -16 -80 -21 -149 -85 -178 -164 -260 -382 -231
-614 18 -141 121 -437 161 -462 6 -3 19 -18 30 -34 l20 -28 -62 22 c-34 13
-89 35 -122 50 -58 26 -151 61 -345 129 -52 19 -126 48 -164 66 -38 17 -104
44 -145 60 -139 51 -535 220 -547 232 -33 35 -160 303 -213 448 -91 252 -146
455 -196 715 -13 72 -36 186 -50 254 -14 68 -25 127 -25 131 0 7 178 157 256
215 346 259 621 531 815 805 225 316 275 454 267 734 -8 258 -43 322 -233 427
-88 48 -184 60 -275 33 -92 -27 -252 -110 -320 -165 -119 -97 -268 -259 -349
-379 -105 -155 -221 -405 -284 -610 -38 -123 -87 -317 -88 -348 -2 -58 -28 61
-49 221 -59 460 -76 802 -61 1212 18 484 45 788 92 1025 11 58 23 116 25 128
3 17 10 22 21 18 36 -14 276 -28 383 -22 148 7 397 55 525 99 339 117 602 331
680 554 48 138 10 303 -90 395 -93 87 -244 135 -388 124 -151 -12 -387 -74
-496 -131 -48 -24 -274 -185 -315 -224 -46 -43 -49 -55 39 184 94 254 147 378
283 659 166 345 388 768 431 822 12 16 60 87 107 158 87 134 211 298 323 426
90 105 284 300 296 299 5 0 35 -30 65 -65 61 -73 272 -271 371 -350 459 -364
609 -434 933 -434 186 -1 329 34 446 108 80 50 97 68 147 159 62 116 87 208
79 299 -12 148 -62 229 -231 371 -152 128 -277 191 -500 252 -246 67 -454 94
-639 86 -139 -7 -140 -14 14 88 86 57 130 83 340 201 89 50 244 125 370 179
58 25 152 66 210 92 330 148 578 251 755 315 205 74 529 186 645 221 36 11
119 38 185 59 161 51 363 101 455 111 122 13 502 3 600 -16z m-2135 -126 c-22
-12 -74 -36 -115 -54 -995 -437 -1465 -719 -2055 -1235 -162 -141 -211 -187
-565 -530 -157 -153 -299 -290 -317 -306 -48 -44 -374 -472 -529 -694 -44 -63
-105 -149 -135 -191 -89 -123 -299 -473 -421 -703 -106 -198 -329 -649 -397
-801 -200 -448 -231 -545 -409 -1270 -82 -333 -96 -421 -128 -767 l-18 -188
-60 -1 c-34 0 -96 -6 -138 -13 -45 -7 -79 -9 -81 -3 -1 5 1 46 5 90 24 275 28
340 28 410 0 79 43 442 60 507 5 19 20 103 35 185 54 316 200 763 350 1070 24
50 67 144 96 210 171 397 396 788 701 1217 250 351 308 423 513 638 87 91 180
192 207 225 28 33 73 83 102 110 62 60 336 303 452 400 46 39 121 102 166 141
232 197 422 342 683 520 310 210 483 321 793 507 113 68 389 204 692 342 250
114 631 258 485 184z m-3361 -2916 c-20 -43 -61 -134 -91 -203 -30 -69 -94
-208 -143 -310 -48 -102 -104 -225 -123 -275 -19 -49 -53 -129 -76 -177 -23
-48 -41 -90 -41 -93 0 -3 -38 -103 -84 -223 -77 -202 -177 -504 -225 -683 -26
-98 -65 -314 -90 -504 -12 -82 -25 -181 -31 -220 -28 -201 -37 -738 -20 -1150
11 -262 35 -434 87 -620 3 -11 -10 3 -27 30 -38 57 -288 309 -371 372 -76 58
-186 123 -241 143 -35 12 -44 20 -38 30 4 7 4 24 -1 38 -26 68 107 828 191
1097 16 50 49 162 75 250 55 191 128 396 241 678 46 114 84 213 84 220 0 25
93 217 266 550 257 495 312 590 496 853 159 228 192 274 195 274 1 0 -14 -35
-33 -77z m11280 -3193 c39 -417 -1 -1026 -89 -1362 -27 -107 -60 -240 -70
-283 -6 -27 -10 -21 -40 66 -40 116 -53 142 -118 239 -90 133 -153 197 -236
238 -72 35 -80 37 -176 37 -98 -1 -102 -2 -182 -43 -84 -43 -170 -118 -199
-173 -8 -17 -18 -28 -21 -25 -3 3 0 40 6 83 9 68 20 226 35 506 2 43 6 81 9
83 3 3 36 18 74 34 39 15 99 46 134 67 297 184 417 272 576 427 124 121 196
218 239 325 l29 70 7 -62 c4 -34 14 -136 22 -227z m-13143 -1646 c7 -9 54 -44
104 -77 49 -32 95 -66 102 -75 7 -8 17 -40 24 -71 23 -112 124 -365 231 -576
74 -146 215 -366 316 -491 237 -296 668 -668 951 -822 59 -32 82 -52 124 -109
29 -38 79 -106 113 -150 33 -45 105 -124 160 -175 55 -51 135 -129 179 -173
204 -204 609 -532 738 -596 34 -17 70 -39 80 -48 39 -34 307 -213 422 -281 66
-40 173 -108 238 -151 64 -44 141 -90 170 -101 28 -12 70 -34 92 -49 237 -160
479 -285 768 -395 92 -36 209 -84 260 -108 145 -69 284 -130 385 -170 106 -42
335 -110 402 -120 25 -4 77 -13 115 -21 109 -22 223 -33 445 -46 197 -11 286
-7 443 18 l38 6 -50 -73 c-66 -96 -22 -90 -536 -71 -368 15 -723 37 -870 56
-159 21 -667 120 -840 164 -160 41 -389 112 -434 135 -26 14 -85 34 -131 46
-142 36 -267 88 -515 211 -224 112 -254 130 -461 282 -352 257 -457 340 -656
520 -103 93 -206 184 -230 203 -63 49 -426 428 -483 504 -26 36 -78 97 -115
135 -37 39 -100 115 -140 170 -115 156 -130 175 -195 250 -34 39 -88 106 -120
150 -32 44 -78 103 -101 130 -23 28 -63 84 -90 125 -60 94 -207 303 -307 438
-42 56 -93 133 -113 170 -20 37 -63 108 -94 157 -71 112 -223 412 -285 565
-26 63 -55 133 -65 155 -42 96 -110 320 -110 364 0 17 26 13 41 -5z m709 -358
c74 -28 308 -84 411 -99 134 -20 152 -30 162 -92 16 -94 67 -310 103 -440 97
-348 192 -659 224 -738 l20 -48 -47 32 c-144 98 -244 184 -387 331 -175 179
-282 307 -355 426 -27 42 -71 112 -100 156 -28 43 -51 83 -51 88 0 5 -15 35
-33 66 -49 84 -167 359 -167 388 0 3 160 -48 220 -70z m11200 45 c0 -34 50
-193 84 -265 61 -132 177 -293 314 -437 71 -74 146 -143 166 -154 20 -11 36
-23 36 -28 0 -12 -59 -126 -95 -181 -17 -28 -54 -85 -80 -126 -26 -41 -58 -86
-70 -100 -13 -14 -37 -49 -54 -78 -30 -52 -87 -125 -206 -264 -33 -39 -75 -89
-93 -112 -88 -108 -312 -320 -422 -397 -244 -174 -414 -272 -745 -433 -207
-101 -267 -118 -219 -63 11 12 50 67 85 122 36 55 129 197 206 315 211 321
383 622 591 1035 131 260 204 416 238 504 13 35 33 78 43 95 11 17 27 56 36
86 10 30 37 105 60 165 44 111 105 306 105 332 0 8 5 11 10 8 6 -3 10 -14 10
-24z m1554 -913 c-9 -29 -29 -87 -46 -128 -16 -41 -47 -120 -68 -175 -116
-306 -395 -821 -538 -991 -33 -40 -74 -91 -92 -115 -59 -83 -235 -274 -430
-468 -240 -239 -403 -373 -575 -476 -33 -20 -102 -65 -154 -100 -148 -101
-480 -261 -792 -380 -47 -18 -100 -40 -117 -49 -17 -9 -80 -34 -139 -55 -59
-22 -191 -70 -293 -108 -102 -38 -239 -86 -305 -107 -66 -21 -149 -48 -185
-61 -36 -13 -78 -27 -95 -30 -16 -4 -61 -17 -100 -30 -124 -41 -307 -92 -430
-120 -66 -14 -145 -33 -175 -41 -217 -59 -579 -141 -700 -160 -52 -8 -120 -21
-150 -28 -30 -8 -97 -17 -148 -20 -51 -4 -116 -11 -145 -16 -28 -4 -95 -11
-148 -15 l-96 -6 -6 83 c-3 46 -8 90 -11 98 -5 13 11 19 91 33 205 35 402 83
653 158 52 15 133 38 180 49 47 12 175 51 285 88 225 74 449 180 581 275 336
242 501 370 535 416 l21 29 82 -62 c172 -130 361 -216 554 -251 86 -16 101
-16 201 -2 231 34 327 84 382 200 40 84 46 158 20 244 -31 105 -82 150 -237
213 -106 44 -148 57 -209 65 -22 3 -64 11 -93 18 l-53 13 57 27 c32 16 87 40
123 53 36 14 76 32 88 40 12 8 47 23 78 35 30 11 115 57 188 101 72 44 147 86
165 94 57 24 253 145 341 211 250 188 655 601 782 798 32 50 72 110 90 135 88
121 146 210 203 313 35 61 71 126 81 143 l19 31 165 6 c161 6 389 34 501 61
84 21 81 23 64 -36z m-10998 -1227 c38 -15 116 -48 174 -73 58 -25 116 -49
130 -53 14 -4 75 -30 135 -58 136 -62 407 -174 665 -277 107 -42 218 -87 245
-99 67 -31 612 -215 739 -251 221 -62 498 -130 626 -154 74 -14 203 -43 285
-64 191 -50 225 -57 420 -82 88 -11 185 -25 215 -30 30 -5 126 -16 212 -25 86
-8 164 -18 172 -21 12 -5 11 -11 -7 -42 -18 -30 -22 -53 -22 -122 0 -75 4 -93
33 -154 65 -138 276 -361 445 -471 l107 -70 -46 -7 c-25 -4 -164 -14 -307 -23
-387 -23 -557 -10 -922 71 -201 45 -373 94 -450 129 -33 15 -104 44 -158 66
-54 22 -144 64 -200 94 -56 29 -150 74 -210 99 -59 25 -121 55 -137 66 -17 12
-92 51 -167 87 -76 35 -149 73 -163 83 -14 10 -86 53 -160 95 -167 96 -374
225 -460 286 -36 26 -123 81 -195 123 -71 43 -148 94 -170 114 -23 20 -75 61
-116 90 -73 52 -178 136 -400 323 -126 106 -409 379 -392 379 6 0 42 -13 79
-29z m7228 -1063 c-28 -50 -92 -121 -169 -187 -190 -165 -320 -246 -560 -352
-211 -92 -809 -287 -990 -321 -27 -5 -128 -25 -224 -44 -96 -19 -179 -33 -186
-30 -7 2 -18 26 -24 51 -14 57 -29 86 -139 280 -106 187 -163 274 -224 347
-26 31 -48 59 -48 62 0 3 57 6 128 6 70 0 224 4 342 10 118 5 337 12 485 15
298 7 577 20 700 35 129 15 309 40 325 45 8 2 65 11 125 20 185 26 451 68 463
74 2 0 0 -5 -4 -11z"/>
<path d="M9373 14363 c-41 -2 -76 -9 -82 -16 -6 -7 -17 -38 -25 -68 -8 -30
-205 -565 -439 -1189 -425 -1135 -889 -2382 -1480 -3970 l-315 -845 -205 -5
c-147 -4 -210 -9 -219 -18 -8 -8 -12 -42 -13 -95 l0 -82 75 -6 c41 -4 346 -7
676 -8 528 -1 603 1 614 14 9 11 11 35 6 84 -10 112 26 101 -338 101 l-319 0
7 23 c17 56 677 1843 683 1848 3 4 393 9 867 12 l861 5 318 -935 c174 -513
316 -936 313 -938 -2 -2 -135 -5 -296 -6 -234 -1 -294 -4 -303 -15 -6 -8 -12
-48 -12 -90 0 -60 3 -80 16 -89 12 -9 232 -13 858 -18 1338 -11 2033 -9 2047
5 7 7 12 44 12 94 0 121 8 117 -223 113 l-189 -4 -14 35 c-7 19 -128 350 -269
735 -224 611 -717 1952 -1515 4121 -332 901 -429 1159 -440 1162 -6 2 -10 12
-10 22 0 10 -7 21 -16 24 -16 6 -497 5 -631 -1z m147 -3606 c67 -197 120 -360
118 -362 -3 -3 -1548 -12 -1548 -9 0 0 108 295 241 655 132 360 310 845 395
1079 85 234 159 436 164 448 9 20 50 -95 259 -715 137 -406 304 -899 371
-1096z"/>
</g>
</svg>
