<?xml version="1.0" standalone="no"?>
<!DOCTYPE svg PUBLIC "-//W3C//DTD SVG 20010904//EN"
 "http://www.w3.org/TR/2001/REC-SVG-20010904/DTD/svg10.dtd">
<svg version="1.0" xmlns="http://www.w3.org/2000/svg"
 width="300.000000pt" height="300.000000pt" viewBox="0 0 300.000000 300.000000"
 preserveAspectRatio="xMidYMid meet">
<metadata>
Created by potrace 1.10, written by Peter Selinger 2001-2011
</metadata>
<g transform="translate(0.000000,300.000000) scale(0.100000,-0.100000)"
fill="#000000" stroke="none">
<path d="M808 2385 c-73 -20 -106 -36 -194 -96 -58 -40 -108 -78 -110 -84 -3
-7 16 -124 41 -261 26 -137 60 -330 75 -429 33 -207 72 -391 89 -423 l11 -21
47 26 c167 93 226 138 280 215 l42 60 -35 97 c-20 53 -38 103 -40 111 -4 14
113 110 134 110 14 0 132 -122 132 -137 0 -23 24 -14 74 28 27 22 66 53 86 69
l37 30 -48 -153 c-27 -83 -72 -218 -99 -299 -28 -81 -52 -167 -53 -190 l-2
-43 115 -6 c63 -4 126 -9 140 -13 19 -5 42 3 94 34 37 22 72 38 76 35 14 -9
19 9 35 126 24 177 24 179 43 179 19 0 36 -81 61 -279 6 -46 16 -90 22 -97 8
-10 42 -14 126 -14 l114 0 89 60 c49 33 94 60 100 60 12 0 12 9 0 85 -6 33
-21 152 -35 265 -14 113 -36 259 -49 325 -14 66 -27 145 -31 175 -9 72 -23 92
-103 145 -88 59 -142 68 -327 58 l-140 -8 -28 -87 -29 -87 -91 73 c-51 40
-146 111 -212 158 -66 46 -163 117 -215 156 -52 40 -103 72 -115 71 -11 0 -59
-11 -107 -24z m252 -100 c41 -33 110 -85 153 -115 85 -59 294 -215 315 -235
11 -10 10 -23 -4 -73 l-17 -61 -56 47 c-87 75 -217 174 -316 240 -49 33 -115
81 -145 106 -30 25 -89 71 -130 103 l-74 56 64 22 65 22 35 -25 c19 -15 69
-53 110 -87z m-232 -5 c42 -33 102 -81 132 -105 30 -25 100 -76 155 -113 55
-37 157 -112 226 -167 70 -55 135 -105 144 -110 33 -20 8 -62 -80 -131 -46
-35 -85 -70 -87 -76 -2 -6 -23 12 -47 40 -24 28 -60 63 -82 78 -45 31 -42 31
-154 -56 -33 -26 -75 -55 -93 -64 -18 -9 -35 -23 -38 -30 -5 -12 19 -105 60
-238 l15 -47 -32 -20 c-18 -11 -76 -50 -129 -85 l-98 -65 0 34 c0 19 -11 92
-25 162 -13 71 -33 184 -44 253 -16 100 -104 537 -128 636 -4 17 14 32 104 92
59 40 112 72 116 72 5 0 43 -27 85 -60z m1112 -257 c0 -42 9 -142 20 -222 62
-437 102 -702 116 -750 8 -29 13 -55 10 -58 -7 -7 -196 8 -196 16 0 22 -42
276 -53 321 l-14 55 -74 -3 c-100 -3 -119 -8 -119 -32 0 -25 -69 -299 -80
-320 -12 -22 -253 -22 -244 0 29 65 132 360 168 479 47 154 146 544 146 574 0
15 15 17 160 17 l160 0 0 -77z m188 -13 c6 0 13 -39 17 -87 4 -49 15 -133 26
-188 10 -55 28 -179 39 -275 11 -96 28 -218 37 -270 12 -74 13 -95 3 -98 -7
-3 -41 -24 -76 -48 l-64 -44 0 30 c0 16 -18 152 -39 302 -79 543 -91 638 -91
702 l0 66 69 -45 c38 -25 74 -45 79 -45z m-1098 -540 l31 -83 -26 -38 c-14
-21 -25 -43 -25 -49 0 -5 -4 -10 -10 -10 -5 0 -10 7 -10 15 0 12 -30 120 -61
222 -2 7 10 21 26 31 36 23 33 25 75 -88z m688 -212 c-9 -51 -20 -115 -23
-141 -5 -39 -11 -50 -32 -58 -14 -5 -39 -19 -56 -31 -29 -21 -30 -21 -22 -2 4
10 24 85 44 166 37 153 37 152 91 157 14 1 14 -9 -2 -91z"/>
<path d="M795 2010 c-12 -20 45 -240 62 -240 11 0 133 115 133 126 0 20 -68
74 -127 100 -64 28 -60 27 -68 14z m100 -99 c4 -20 11 -41 16 -47 5 -7 -2 -21
-20 -38 l-28 -27 -21 78 c-11 43 -24 88 -27 101 -7 22 -7 22 33 -4 31 -20 42
-35 47 -63z m75 -16 c0 -1 -9 -10 -20 -20 -21 -19 -22 -18 -45 54 l-7 24 36
-28 c20 -15 36 -28 36 -30z"/>
<path d="M1720 1755 c-21 -55 -50 -184 -44 -198 3 -9 25 -18 56 -22 75 -11 80
-1 57 110 -27 134 -48 166 -69 110z m36 -82 c14 -93 9 -113 -27 -113 -17 0
-29 5 -29 13 0 23 35 167 40 167 3 0 10 -30 16 -67z"/>
</g>
</svg>
